<svg xmlns="http://www.w3.org/2000/svg" viewBox="0 0 1498.699 315.751" xmlns:v="https://vecta.io/nano"><style><![CDATA[.A{letter-spacing:-0.075em}]]></style><text class="A" transform="translate(273.809 244.349)" font-size="240.414" fill="#fff" font-family="HiraMinProN-W3-83pv-RKSJ-H,Hiragino Mincho ProN">FibonacciKu</text><path d="M168 5.238c-.001 1.109-.891 2.013-2 2.032l-.272-.01q-2.154-.096-4.33-.096l-1.039.006-.503.006h-.061l-1.523.038-.266.01-.237.006-.561.022-.773.035-.683.035-.215.013h-.022l-.135.01-1.093.074-.878.067-1.218.106-.404.038-.141.013-.795.083-.215.022-.119.013-.606.071q-.957.111-1.904.24l-.692.099-1.721.263-.766.131-.968.17-.667.122-.433.08-.436.087-.157.032-.805.167c-.008-.001-.015.001-.022.003l-1.683.365c-.012.001-.024.003-.035.006l-.667.157-1.099.263-1.077.276-.955.253-1.151.314-.01.006-1.157.337-.897.272-.596.186-.901.285-.763.256-.676.228-.676.234-.68.244c-.013.003-.022.01-.038.013l-.516.186-.74.279-.413.157-1.574.615-.782.317-1.555.657-.772.337-.58.26-.58.263-1.148.535-.744.359-.756.369-.561.279-.824.42-1.628.862-.811.439-.625.346-.673.381-.67.385q-.75.438-1.494.888c-.022.016-.045.029-.071.045q-.707.428-1.401.869-.639.399-1.276.821l-.567.372-.567.378-.423.285q-.351.236-.702.481l-.571.404-.641.452-.538.388-2.042 1.523-.833.647-.138.106-.647.516-.587.474c-.026.019-.051.039-.074.061-.019.013-.032.026-.048.038l-.519.426-.555.462-.462.394-.904.773-.856.756-.673.606-.865.795-1.067 1.01-.106.099-.192.186-.58.567-.013.013-.256.256q-.428.413-.837.837l-.558.571-.558.577-.186.199-.891.952-.147.16-.865.952q-.505.563-1 1.135l-.824.958-.253.305-.766.923-.093.115-.747.93-.051.064q-.082.096-.154.192-.442.558-.878 1.125l-.061.08-.907 1.208-.859 1.173-.055.08-.41.577-.407.58-.067.096-.817 1.196-.045.071-.718 1.08-.135.208-.712 1.122-.16.25-.689 1.125-.635 1.064-.288.494v.003l-.439.756-.051.093-.305.538-.449.814-.189.349-.481.901-.506.971-1.093 2.196-.506 1.074-.526 1.138-.394.891-.404.933-.285.67-.513 1.253-.487 1.24c-.007.013-.013.027-.016.042l-.365.965a.43.43 0 0 1-.022.058q-.284.75-.548 1.507l-.128.362-.125.369-.25.728-.388 1.173-.208.667-.285.92-.08.263-.266.914-.147.51q-.24.841-.462 1.699l-.337 1.311-.183.747-.205.856-.263 1.183-.202.958-.08.381-.151.76-.09.471-.032.16-.154.853-.154.881-.074.436-.035.208-.138.888-.295 2.067-.096.76-.093.789-.045.391-.071.673-.067.68-.061.635-.077.897-.058.689-.022.343-.006.103-.074 1.176-.042.805-.038.808-.022.635-.026.904-.016.622-.006.391-.006.558-.006.949.01 1.298.01.724a.62.62 0 0 1 .006.109l.003.144.006.237.013.449.029.917.051 1.135v.003l.035.628.048.798.074 1.051.035.455c-.001.01 0 .02.003.029l.087 1.013.013.151.083.872.093.872.103.865q.048.433.106.865l.045.346.147 1.061v.003l.183 1.212.199 1.205.055.33.176.974.205 1.093.058.282.212 1.045.292 1.337.173.757.01.048.022.103.09.372.26 1.061.311 1.202.019.077.135.494.135.494.003.013.019.074.353 1.24.327 1.087.138.446.314 1 .327.994.397 1.164.381 1.071q.048.149.106.298l.349.942.439 1.141.192.49.263.647.465 1.131c.01.026.022.048.032.071l.446 1.042.5 1.135.016.035.49 1.064.494 1.045q.341.712.692 1.414l.417.821.561 1.077.574 1.071.417.756.423.753.43.75.436.744.237.397.394.657c.013.026.026.045.038.067l.163.263.055.083.324.529.019.032.212.33.558.881.317.484.317.484c.019.026.035.058.058.083.003.006.01.013.013.019l.298.452.308.452 1.41 2.016.708.978.712.958c.01.01.016.019.026.029l.359.471.359.465.744.949.756.939.369.452.381.455c.012.018.025.035.038.051l.16.189c.016.022.038.045.054.064l.503.593c.006.007.011.014.016.022.021.02.04.041.058.064l.138.16.314.365.317.362.782.878.811.888.792.849c.008.008.016.016.022.026l.019.019.821.856q.837.87 1.696 1.708l.821.795c.014.016.029.031.045.045s.029.029.045.042l.984.93q.505.476 1.019.939l.753.676.574.503.183.163.221.186q.207.188.423.365l.814.686.817.68.827.67.837.66.962.737.247.192.657.49.718.529.372.269.708.51.119.083.59.41.087.061.756.522.212.144.801.535.567.375.526.337.769.494q1.226.774 2.481 1.513.707.413 1.417.817l.474.266 1.112.612a.81.81 0 0 1 .071.042l.292.16 1.218.638.038.019 1.148.587.593.295.17.083c.292.144 1.199.644 1.359.76l.231.167.471.34.465.343 1.798 1.449 1.295 1.148.42.397.497.487.724.737.397.42.391.426.76.865.737.891.67.859.327.439.317.439c.029.032.051.071.077.103a.05.05 0 0 0 .019.026l.638.933.628.971 1.173 2.003.138.256.138.256.529 1.042.218.449a.55.55 0 0 0 .055.106l.224.5.253.564.17.394.269.657.141.359c.006.01.01.019.016.029.006.022.016.042.022.061.001.007.003.013.006.019l.263.705.17.481.115.333.119.349.141.436.106.337.163.555.189.676.131.497.071.282c.01.029.019.064.026.093.003.019.01.038.013.058l.087.362.263 1.202.054.279.051.279.119.657.087.532.071.468.083.615.074.615.061.619.032.324.016.205.013.17.013.18.029.372.016.295.006.122.022.564.016.394v.026l.01.494.006.638a39.47 39.47 0 0 1-39.468 39.471c-.119 0-.234 0-.353-.006l-.744-.013-.631-.022a.31.31 0 0 1-.054-.003l-.51-.022-.122-.006-.436-.032-.673-.051-.391-.038h-.013a18.25 18.25 0 0 1-.631-.067l-.465-.054-.413-.054-.449-.067-.446-.071-.288-.045s-.186-.032-.282-.051l-.689-.125-.038-.006-.34-.071-.083-.016-.407-.083-.135-.032-.01-.003-.417-.093-.442-.106-.237-.061-.147-.035-.519-.138-1.404-.41q-4.178-1.683-8.209-3.638l-1.625-.801-.119-.061c-.021-.009-.041-.02-.061-.032l-.555-.282a28.95 28.95 0 0 1-.827-.423l-.436-.224-.833-.439-3.795-2.09-.914-.526-.91-.535-1.375-.824-.984-.603-1.173-.737-.849-.545-.99-.641-.984-.654q-1.962-1.313-3.875-2.689l-.952-.696-1.891-1.41-.933-.715q-1.866-1.442-3.677-2.949a32.1 32.1 0 0 1-.808-.673l-1.115-.949-1.648-1.442-.926-.83-1.68-1.551-1.657-1.577-.888-.865-.833-.83q-1.702-1.707-3.343-3.475l-.718-.779-.792-.869-.782-.881-.724-.824-.869-1.013a37.75 37.75 0 0 1-.667-.785l-.798-.958-.548-.667-.125-.157-.574-.708-.567-.715-1.119-1.436-.465-.606-.083-.112-.462-.612-.683-.92-1.343-1.856-.66-.936-.654-.946-.324-.471-.324-.478-.638-.955-.667-1.016-.74-1.16-.022-.026-.125-.202-.407-.647-.019-.035-.625-1.013-.587-.965-.58-.974-.449-.769-.535-.926-.404-.721-.503-.901-.583-1.067-.516-.962-.122-.231-.503-.965-.542-1.058c-.01-.016-.016-.029-.026-.048l-.535-1.074-.538-1.099-.266-.548-.263-.555-.516-1.106-.51-1.115-.497-1.119-.247-.564-.244-.561-.481-1.131-.468-1.131-.458-1.141-.449-1.148-.442-1.151-.308-.833-.112-.288-.032-.093-.805-2.26q-.25-.731-.497-1.465l-.481-1.468-.343-1.083-.173-.564-.394-1.314-.349-1.192-.288-1.026-.179-.66-.029-.106-.218-.817-.26-.997-.305-1.212-.151-.606-.141-.606-.26-1.109-.202-.901-.202-.936-.202-.946-.176-.875-.055-.272-.208-1.096-.228-1.24-.202-1.167-.026-.128-.16-.981-.173-1.096-.16-1.099-.119-.814-.128-.965-.141-1.112-.032-.269-.135-1.141-.138-1.269-.071-.689-.013-.138-.074-.785-.09-1.006-.096-1.24-.087-1.247-.042-.686q-.029-.404-.048-.808l-.064-1.253-.048-1.257q-.048-1.221-.071-2.452L0 136.632l.006-1.327v-.112l.01-.747.003-.157.026-1.285.051-1.59a.31.31 0 0 0 .003-.055l.054-1.311.032-.644.061-1.035.064-1.003.083-1.212.01-.115c-.001-.009.001-.017.003-.026a.7.7 0 0 0 .01-.115l.074-.946a2.46 2.46 0 0 0 .016-.16c.004-.03.006-.06.006-.09l.013-.128.038-.458v-.003l.141-1.449.115-1.103c.01-.048.013-.093.019-.141l.112-1 .151-1.228.051-.404.17-1.263.173-1.17.122-.817a.55.55 0 0 1 .013-.077l.157-1.003a1.89 1.89 0 0 0 .022-.131l.16-.946.077-.446.122-.696.016-.087.135-.728.228-1.196.224-1.112c.002-.021.007-.041.013-.061q.125-.625.26-1.25.221-1.014.455-2.029l.266-1.132.038-.163.144-.593.038-.17.087-.34.151-.596.154-.593.349-1.321c.003-.013.003-.022.006-.035l.378-1.356q.644-2.284 1.362-4.529l.205-.635.125-.378.359-1.083.032-.093.468-1.359.522-1.455.311-.849.064-.176.157-.423.279-.734q.471-1.226.965-2.439l.327-.798a24.55 24.55 0 0 1 .311-.747l.587-1.378a1.93 1.93 0 0 1 .051-.122l.561-1.266.071-.16.381-.846q.793-1.741 1.635-3.455l.484-.974 1.186-2.321.369-.699.157-.288.615-1.135.337-.619a4.01 4.01 0 0 1 .09-.16q.168-.308.346-.615l.119-.218.513-.897.792-1.359.635-1.055.587-.965.619-1.003.631-.997.407-.638a.49.49 0 0 0 .035-.051q.543-.846 1.103-1.676.514-.789 1.058-1.561l.644-.93.048-.07 1.343-1.885.295-.404c.006-.01.012-.02.019-.029l.035-.048c.027-.033.051-.067.074-.103l.077-.103.167-.224a.58.58 0 0 1 .061-.08l.651-.872 1.449-1.894.516-.654.16-.208.756-.942.76-.933.76-.914.756-.897q.76-.894 1.539-1.776l.779-.878.789-.869.792-.865.301-.324.305-.321.718-.76.753-.785.583-.599.635-.638.58-.58.708-.702.414-.404.035-.035.894-.862.817-.772.144-.128a23.37 23.37 0 0 1 .587-.548l1.744-1.587c.006-.006.016-.013.022-.019q.375-.337.75-.664l.01-.01c.006-.003.01-.01.016-.013l.571-.5.574-.494a16.35 16.35 0 0 1 .561-.481q.553-.481 1.122-.946a1.36 1.36 0 0 1 .077-.064l.654-.542.718-.587.724-.58.109-.09c.033-.024.066-.05.096-.077l1.346-1.051.789-.609.936-.708.657-.49.08-.061q.736-.543 1.484-1.08l.628-.449.962-.676.971-.67q1.789-1.231 3.628-2.404l.766-.487.112-.071s.071-.045.112-.067l.311-.196 1.003-.619.715-.436.096-.061.413-.247.397-.237.401-.234.708-.417.144-.08.474-.272.215-.122 1.048-.596.07-.038 1.077-.593 1.446-.779.805-.426c.038-.022.08-.042.119-.061l.199-.106.897-.462q1.087-.548 2.176-1.083c.034-.015.067-.032.099-.051l1.603-.763.664-.311.997-.455a.32.32 0 0 1 .048-.022q.861-.389 1.728-.769.861-.375 1.731-.74c.026-.01.051-.026.077-.035.015-.006.03-.012.045-.016l.157-.067.99-.41.112-.045.91-.369.128-.048.731-.292.119-.045.503-.196 1.157-.439.163-.064.337-.122 1.33-.484 1.369-.484a.72.72 0 0 1 .077-.026l.865-.301c.006-.003.013-.003.019-.006l.891-.295.298-.096.397-.135q.803-.26 1.609-.51l.933-.282c.032-.013.064-.022.096-.032l.311-.093c.042-.016.083-.026.125-.038l.314-.096c.016-.006.035-.01.054-.016l.747-.215.141-.042.734-.208 1.023-.285.939-.253c.006-.003.013-.003.019-.006l.446-.115.01-.003 1.218-.314.221-.058.436-.106.462-.115.596-.141.205-.048.76-.18 1.561-.353.276-.061 1.468-.305 1.247-.25c.042-.013.09-.019.131-.029l.67-.125.942-.173.676-.122.808-.138.814-.138.173-.029.776-.125.224-.032.378-.061q.789-.12 1.587-.231l1.651-.221c.042-.003.077-.013.119-.016l1.324-.16c.055-.01.112-.013.167-.019l.446-.048c.016-.003.035-.003.054-.006l2.433-.25a3.73 3.73 0 0 1 .266-.026l.593-.055 1.542-.125 1.539-.109 1.375-.08.606-.035q.995-.048 1.991-.087l1.237-.038.724-.016.747-.013.372-.01.375-.003 1.545-.01a136.97 136.97 0 0 1 29.701 3.237l.135.029c.904.227 1.538 1.039 1.539 1.971z" fill="#3cf"/><path d="M273.148 136.603c0 75.46-61.172 136.631-136.632 136.632q-4.024 0-7.985-.231h-.003c-.038 0-.077-.003-.115-.006-.51-.054-.913-.458-.966-.968s.259-.988.748-1.145l.01-.003c.051-.01.103-.022.154-.032 18.323-4.277 31.285-20.611 31.288-39.426q0-.375-.01-.75c-.003-.34-.013-.676-.032-1.01l-.013-.305-.048-.821q-.029-.414-.067-.827l-.045-.455a18.4 18.4 0 0 0-.08-.721l-.058-.487-.077-.539c-.071-.478-.147-.949-.234-1.42l-.147-.753-.08-.391q-.038-.192-.087-.385a26.83 26.83 0 0 0-.25-1.058l-.189-.728-.144-.51c-.054-.208-.119-.417-.183-.622-.007-.02-.012-.04-.016-.061l-.381-1.173a30.38 30.38 0 0 0-.433-1.218 42.28 42.28 0 0 0-.474-1.199q-.471-1.149-1.019-2.266l-.186-.378c-.192-.385-.391-.769-.599-1.148-.083-.163-.173-.324-.263-.484l-.183-.321q-.096-.173-.202-.346c-.005-.013-.012-.026-.019-.038l-.397-.663c-.099-.167-.202-.327-.311-.494-.099-.163-.205-.33-.317-.494-.048-.083-.103-.163-.157-.247q-.447-.673-.917-1.327l-.298-.404a10.85 10.85 0 0 0-.301-.401c-.301-.407-.619-.808-.946-1.199q-.144-.183-.298-.365l-.324-.378q-.962-1.12-2.003-2.164l-.25-.25c-.228-.224-.455-.442-.689-.66a20.7 20.7 0 0 0-.612-.567l-.686-.606-.596-.506q-.702-.587-1.43-1.138l-.013-.006c-.035-.029-.074-.054-.109-.083-.332-.292-.454-.757-.307-1.174s.532-.704.974-.724c.061 0 .125.003.186.006l.856.026 1.801.032 1.096.006 2.593-.029 1.24-.042.458-.016 1.112-.048 2.33-.144.548-.042q1.149-.087 2.292-.205c.199-.016.401-.035.596-.061h.01a12.93 12.93 0 0 0 .615-.067 28.95 28.95 0 0 0 1.045-.122c.263-.026.522-.061.785-.096.26-.029.522-.067.782-.103l.907-.128a10.29 10.29 0 0 0 .538-.08l.542-.083q1.13-.173 2.257-.375l1.103-.205c.186-.032.369-.067.558-.106l.856-.17.853-.176.849-.183.849-.192 1.103-.26c.199-.045.397-.096.599-.147l2.119-.548a19.19 19.19 0 0 0 .532-.144l.801-.224.958-.276.606-.18.974-.298c.417-.125.827-.26 1.237-.391l2.106-.712.824-.288 1.51-.555.846-.321q.899-.341 1.789-.708c.151-.058.298-.119.446-.18q1.072-.442 2.128-.904l.968-.429 1.349-.619c.955-.446 1.91-.907 2.853-1.385l.776-.398q.986-.5 1.958-1.029l2.157-1.202.619-.356.702-.41 1.144-.689 1.878-1.167 1.083-.702a97.33 97.33 0 0 0 2.071-1.391l.689-.478c.276-.189.548-.388.824-.583l1.257-.914 1.369-1.026c.212-.157.417-.317.622-.481l1.128-.885.647-.516.641-.526.513-.423c.333-.272.66-.555.99-.837a17.07 17.07 0 0 0 .516-.442l.471-.41c.638-.555 1.266-1.122 1.891-1.696a31.14 31.14 0 0 0 .683-.631l.821-.776 1.042-1.01c.058-.05.112-.104.163-.16.298-.288.59-.583.881-.878.349-.346.692-.702 1.029-1.055l.74-.773q1.149-1.216 2.26-2.468a47.93 47.93 0 0 0 .837-.952l1.426-1.683c.112-.131.218-.256.321-.388l.317-.385.574-.712.763-.968 1.237-1.612.66-.891.41-.558.404-.564q.264-.365.519-.731l.513-.737q2.317-3.361 4.379-6.911.236-.399.462-.798c.561-.978 1.099-1.965 1.625-2.965l.567-1.087q1.12-2.178 2.135-4.414l.33-.734a83.04 83.04 0 0 0 1.221-2.856c.035-.08.067-.157.096-.234a71.2 71.2 0 0 0 .821-2.071l.202-.526.215-.58.215-.583a40.34 40.34 0 0 0 .468-1.317c.007-.009.012-.02.013-.032l.212-.619c.02-.047.038-.095.051-.144l.183-.545.555-1.712.397-1.289c.09-.288.176-.58.256-.869a37.2 37.2 0 0 0 .282-.974l.269-.978.333-1.263c.006-.014.01-.03.013-.045l.151-.603c.01-.027.017-.055.019-.083a37.24 37.24 0 0 0 .244-.99l.282-1.212q.231-1 .436-2.01l.112-.558.109-.551.109-.555.375-2.109c.045-.231.08-.465.119-.699v-.01a53.23 53.23 0 0 0 .244-1.596 1.33 1.33 0 0 0 .026-.163l.115-.824c.042-.272.074-.545.106-.824.038-.263.071-.522.099-.785l.196-1.724v-.01l.064-.631q.034-.317.058-.635c.045-.423.08-.849.112-1.273l.08-1.055q.034-.457.058-.914l.032-.522.035-.68q.067-1.274.096-2.555l.016-.705a30.12 30.12 0 0 0 .013-.93l.01-1.148c.004-7.038-.693-14.06-2.08-20.96-.029-.135-.043-.272-.042-.41a2.04 2.04 0 0 1 3.837-.971c.038.061.071.122.106.183l.59 1.055.391.715a19.15 19.15 0 0 1 .391.715l.664 1.247.433.833.506.997.641 1.276.202.413c.071.138.138.279.202.413l.635 1.33.622 1.337.269.59q.231.51.462 1.029l.468 1.077.506 1.189.539 1.295.522 1.305c.138.333.266.667.394 1l.462 1.208.372.99.375 1.048.26.728.314.901.417 1.234.407 1.237.394 1.244.305 1c.109.333.208.667.301 1 .064.202.122.407.179.609q.731 2.505 1.359 5.048l.311 1.276.301 1.282q.539 2.356.994 4.738l.119.641.048.253.263 1.471.055.33.125.737.16.99.176 1.16.16 1.109.035.269.17 1.266q.173 1.332.317 2.664l.138 1.337.125 1.34.083.994.067.865.064.862q.322 4.712.327 9.507z" fill="#045b96"/><path d="M243.508 81.185q0 2.856-.154 5.673c-2.942 54.056-46.702 96.904-100.809 98.706-.024.003-.049.004-.074.003h-.016a2.04 2.04 0 0 1-1.644-3.228l.208-.25.01-.01c9.118-10.81 15.939-23.364 20.046-36.897a24.78 24.78 0 0 0 .782-2.709c.003-.01.003-.016.006-.026a26.21 26.21 0 0 0-.516-13.61c-1.301-4.17-3.85-8.658-10.292-13.802l-.01-.01a55.42 55.42 0 0 1 36.746-96.911q2.154 0 4.273.163a55.09 55.09 0 0 1 27.807 10.065c.013.006.025.013.035.022q2.822 2.173 5.529 4.5a55.42 55.42 0 0 1 15.225 24.002 104.29 104.29 0 0 1 2.551 16.408q.288 3.919.295 7.908z" fill="#f36"/></svg>