<svg id="Layer_1" data-name="Layer 1" xmlns="http://www.w3.org/2000/svg" viewBox="0 0 852.16 852.43"><defs><style>.cls-1{fill:none;}.cls-2{fill:#3bc6f4;}.cls-3{fill:#16294f;}.cls-4{fill:#ef3954;}</style></defs><path class="cls-1" d="M590.88,819.37c1.92,1.45,3.79,3,5.61,4.52C594.66,822.33,592.79,820.83,590.88,819.37Z" transform="translate(-213.92 -213.79)"/><path class="cls-1" d="M596.49,823.89q2.07,1.73,4,3.59C599.21,826.26,597.87,825.05,596.49,823.89Z" transform="translate(-213.92 -213.79)"/><path class="cls-1" d="M605.66,832.53c-.75-.77-1.5-1.54-2.27-2.3l-1.55-1.52C603.15,830,604.42,831.23,605.66,832.53Z" transform="translate(-213.92 -213.79)"/><path class="cls-2" d="M738,230.12a6.34,6.34,0,0,1-6.24,6.34l-.85,0q-6.72-.3-13.51-.3l-3.24,0-1.57,0h-.19c-1.58,0-3.17.07-4.75.12l-.83,0c-.25,0-.49,0-.74,0-.58,0-1.17,0-1.75.07-.81,0-1.61.06-2.41.1l-2.13.11c-.22,0-.45,0-.67,0h-.07l-.42,0-3.41.23-2.74.21c-1.27.1-2.54.22-3.8.34-.43,0-.84.07-1.26.12l-.44,0-2.48.26-.67.07-.37,0-1.89.23q-3,.33-5.94.75c-.72.09-1.45.19-2.16.31q-2.68.38-5.37.82c-.79.12-1.59.25-2.39.4l-3,.53c-.7.11-1.38.25-2.08.38-.45.08-.9.18-1.35.25l-1.36.27-.49.1c-.84.16-1.68.33-2.51.52h-.07c-1.76.36-3.52.75-5.25,1.14l-.11,0c-.69.16-1.39.32-2.08.5-1.15.25-2.29.53-3.43.81s-2.24.57-3.36.86l0,0c-1,.25-2,.5-2.93.77l-3.59,1,0,0c-1.21.35-2.41.69-3.61,1.05-.94.28-1.87.56-2.8.86l-1.86.57-2.81.89c-.8.26-1.59.52-2.38.8s-1.41.46-2.11.71l-2.11.73-2.12.76s-.07,0-.12.05c-.54.18-1.08.38-1.61.57l-2.31.87-1.29.49c-1.65.63-3.28,1.26-4.91,1.92-.82.33-1.63.65-2.44,1-1.63.66-3.24,1.35-4.85,2.05-.82.35-1.61.69-2.41,1.05l-1.81.81c-.6.26-1.2.54-1.81.82-1.2.55-2.39,1.11-3.58,1.68-.78.37-1.55.72-2.32,1.12s-1.57.75-2.36,1.14c-.59.28-1.17.57-1.75.87l-2.57,1.31c-1.7.88-3.4,1.77-5.08,2.69-.85.43-1.69.9-2.53,1.37-.66.35-1.3.71-2,1.08s-1.4.79-2.1,1.19l-2.09,1.2q-2.34,1.37-4.66,2.78l-.22.13c-1.47.89-2.93,1.8-4.37,2.71s-2.66,1.68-4,2.56c-.6.37-1.18.76-1.77,1.16s-1.18.78-1.77,1.19-.88.58-1.32.88q-1.1.74-2.19,1.5c-.6.43-1.19.83-1.78,1.26s-1.34.92-2,1.42-1.11.78-1.68,1.2c-2.14,1.55-4.27,3.14-6.37,4.75-.87.67-1.74,1.34-2.6,2l-.43.34c-.68.52-1.35,1.06-2,1.6s-1.23,1-1.83,1.48a2.11,2.11,0,0,0-.23.19l-.15.12c-.54.43-1.08.88-1.62,1.33s-1.16.95-1.73,1.44-1,.81-1.44,1.23c-1,.8-1.9,1.61-2.82,2.42s-1.79,1.57-2.67,2.35c-.71.62-1.41,1.26-2.1,1.9-.91.82-1.8,1.63-2.7,2.47-1.12,1-2.22,2.1-3.33,3.16-.11.09-.21.2-.33.31l-.6.57-1.81,1.77,0,0c-.27.26-.54.53-.8.81-.89.85-1.76,1.72-2.61,2.6-.59.59-1.17,1.18-1.74,1.78l-1.74,1.81-.58.62c-.94,1-1.86,2-2.78,3l-.46.5c-.91,1-1.8,2-2.7,3q-1.58,1.74-3.12,3.53c-.86,1-1.72,2-2.57,3l-.79.95c-.81,1-1.6,1.91-2.39,2.88l-.29.36c-.79,1-1.57,1.93-2.33,2.91l-.16.19q-.25.3-.48.6c-.92,1.16-1.83,2.34-2.74,3.52l-.19.25c-.95,1.25-1.9,2.5-2.83,3.76s-1.79,2.44-2.68,3.66l-.17.25c-.44.6-.86,1.21-1.28,1.8l-1.27,1.81-.21.3q-1.29,1.86-2.55,3.74l-.14.21c-.75,1.12-1.5,2.24-2.24,3.37-.13.23-.27.43-.42.65-.74,1.16-1.49,2.33-2.22,3.5l-.5.78c-.73,1.18-1.45,2.33-2.15,3.51s-1.33,2.2-2,3.32c-.31.51-.61,1-.9,1.54h0c-.47.79-.92,1.57-1.37,2.36l-.16.29c-.32.56-.64,1.12-.95,1.68-.48.84-.94,1.69-1.4,2.54l-.59,1.09c-.51.94-1,1.86-1.5,2.81s-1.06,2-1.58,3c-1.17,2.26-2.3,4.56-3.41,6.85-.53,1.11-1.06,2.22-1.58,3.35s-1.11,2.36-1.64,3.55c-.42.93-.83,1.87-1.23,2.78s-.85,1.93-1.26,2.91l-.89,2.09c-.54,1.3-1.08,2.6-1.6,3.91s-1,2.57-1.52,3.87a.5.5,0,0,0-.05.13c-.39,1-.77,2-1.14,3a1.34,1.34,0,0,1-.07.18q-.88,2.34-1.71,4.7c-.14.37-.27.76-.4,1.13s-.26.76-.39,1.16c-.27.75-.53,1.51-.78,2.26-.41,1.22-.81,2.44-1.21,3.66-.22.7-.43,1.39-.65,2.08-.3,1-.61,1.92-.89,2.88-.08.27-.16.54-.25.81-.28.94-.56,1.89-.83,2.85-.15.53-.31,1.06-.46,1.59q-.75,2.63-1.44,5.31-.56,2-1.05,4.08c-.2.77-.39,1.55-.57,2.33s-.43,1.78-.64,2.67c-.28,1.23-.56,2.45-.82,3.69-.22,1-.44,2-.63,3-.09.39-.17.8-.25,1.19-.16.8-.33,1.58-.47,2.37-.1.49-.2,1-.28,1.47,0,.17-.08.33-.1.5-.17.89-.33,1.77-.48,2.66s-.33,1.83-.48,2.75c-.09.45-.16.92-.23,1.36,0,.22-.07.44-.11.65-.15.93-.3,1.85-.43,2.77-.34,2.14-.64,4.29-.92,6.46-.1.77-.21,1.56-.3,2.37a.35.35,0,0,0,0,.06c-.09.79-.2,1.59-.28,2.39,0,.42-.09.81-.14,1.22-.08.71-.15,1.39-.22,2.1s-.15,1.42-.21,2.12-.14,1.31-.19,2c-.09.91-.17,1.85-.24,2.79-.06.71-.11,1.43-.18,2.15,0,.35-.05.72-.07,1.07,0,.11,0,.23,0,.32-.08,1.23-.17,2.45-.23,3.67,0,.83-.09,1.68-.13,2.51s-.09,1.68-.12,2.52c0,.65,0,1.32-.07,2,0,.94-.06,1.88-.08,2.82,0,.64,0,1.3-.05,1.94,0,.41,0,.82,0,1.23,0,.57,0,1.15,0,1.74,0,1,0,2,0,2.95,0,1.35,0,2.71,0,4.06l0,2.25a1.94,1.94,0,0,1,0,.34c0,.16,0,.3,0,.45s0,.49,0,.74c0,.47,0,.93,0,1.4,0,1,.05,1.9.09,2.86,0,1.18.1,2.37.16,3.54h0c0,.66.07,1.31.11,2,0,.84.1,1.66.15,2.49.07,1.11.14,2.2.23,3.28,0,.48.07,1,.11,1.43a.22.22,0,0,0,0,.08c.07,1.06.17,2.11.27,3.17,0,.15,0,.3,0,.46.09.91.17,1.81.26,2.72s.19,1.82.29,2.73.21,1.79.32,2.69.21,1.81.33,2.7c0,.38.09.72.14,1.09.15,1.11.31,2.2.46,3.3h0c.18,1.26.38,2.52.57,3.79s.4,2.51.62,3.76c.05.33.11.68.17,1,.17,1,.36,2,.55,3s.41,2.28.64,3.41c.05.29.11.58.18.88.2,1.08.43,2.18.66,3.27.29,1.38.6,2.78.91,4.16.17.79.35,1.59.54,2.37l0,.14c0,.12.05.21.07.33.1.38.19.78.28,1.15.26,1.11.53,2.22.81,3.31.32,1.25.64,2.5,1,3.75,0,.1,0,.17.06.24l.42,1.55c.13.51.27,1,.42,1.54v0l.06.24c.36,1.28.73,2.57,1.1,3.86s.67,2.27,1,3.39c.13.48.28.92.43,1.39.32,1.05.64,2.09,1,3.12s.67,2.07,1,3.1c.41,1.22.81,2.42,1.24,3.64s.78,2.23,1.19,3.33c.1.31.21.63.33.93.35,1,.72,2,1.09,3,.45,1.18.91,2.37,1.37,3.55l.6,1.53c.28.69.55,1.35.82,2,.48,1.18.95,2.35,1.45,3.52,0,.08.07.16.1.23.45,1.09.91,2.17,1.39,3.25s1,2.35,1.56,3.53l.05.12c.5,1.1,1,2.2,1.53,3.31s1,2.18,1.54,3.26c.71,1.48,1.43,3,2.16,4.42l1.3,2.55c.58,1.12,1.16,2.25,1.75,3.36s1.19,2.22,1.79,3.35c.43.78.85,1.57,1.3,2.35s.87,1.57,1.32,2.35.88,1.57,1.34,2.34.9,1.56,1.36,2.32c.24.42.49.83.74,1.24.41.68.82,1.39,1.23,2a2,2,0,0,0,.12.21c.18.27.35.55.51.82a2.94,2.94,0,0,0,.17.26c.33.56.67,1.11,1,1.66a.7.7,0,0,1,.06.09l.66,1c.57.9,1.16,1.82,1.74,2.75l1,1.51c.32.5.66,1,1,1.51.06.07.11.17.18.26l0,.05.93,1.42,1,1.4c1.44,2.12,2.9,4.22,4.4,6.29.72,1,1.46,2.05,2.21,3.06s1.48,2,2.22,3l.08.08c.38.49.74,1,1.12,1.48s.73,1,1.12,1.45c.76,1,1.54,2,2.32,3s1.56,2,2.36,2.93c.37.49.76.94,1.15,1.42s.79,1,1.19,1.41a1,1,0,0,0,.12.16l.5.59a1.18,1.18,0,0,0,.17.2c.52.64,1,1.23,1.57,1.86l0,.06a1.24,1.24,0,0,1,.18.21l.43.5,1,1.13c.32.38.65.76,1,1.13l2.44,2.75c.83.92,1.67,1.85,2.53,2.76s1.64,1.77,2.47,2.65l.07.09.06.06c.83.89,1.69,1.78,2.56,2.67,1.74,1.8,3.5,3.59,5.29,5.33.84.83,1.7,1.66,2.56,2.47l.14.14.14.14c1,1,2,1.95,3.07,2.9s2.11,2,3.18,2.92l2.35,2.12c.59.53,1.19,1.06,1.79,1.57l.57.5c.23.19.46.4.69.58q.65.59,1.32,1.14c.84.72,1.68,1.45,2.54,2.15s1.69,1.41,2.55,2.12,1.72,1.4,2.58,2.08L530,781c1,.78,2,1.54,3,2.29l.77.6c.67.51,1.36,1,2,1.53s1.48,1.12,2.24,1.65c.39.29.77.57,1.16.84.74.54,1.47,1.08,2.21,1.6l.37.26,1.84,1.27.27.2c.78.55,1.57,1.08,2.36,1.62l.66.45,2.5,1.68,1.77,1.16c.54.36,1.09.71,1.64,1.05.8.54,1.6,1,2.4,1.55,2.55,1.61,5.13,3.17,7.74,4.71l4.42,2.56,1.48.83c1.15.65,2.31,1.28,3.47,1.91a1.19,1.19,0,0,1,.22.12l.91.5c1.26.67,2.53,1.35,3.8,2l.12.06c1.19.63,2.39,1.23,3.58,1.84l1.85.91.53.26c.91.45,3.74,2,4.24,2.37.23.18.48.34.72.52.5.34,1,.71,1.47,1.06s1,.72,1.45,1.07c1.91,1.46,3.78,3,5.61,4.53,1.37,1.15,2.72,2.37,4,3.57.43.43.87.83,1.31,1.24l1.55,1.52c.77.76,1.51,1.54,2.26,2.3.42.43.83.88,1.24,1.31l1.22,1.34c.8.87,1.59,1.78,2.37,2.69s1.54,1.84,2.3,2.79,1.4,1.78,2.09,2.67l1,1.37c.34.45.67.9,1,1.37.09.11.16.22.24.33a.13.13,0,0,0,.06.07c.68,1,1.35,1.94,2,2.92s1.32,2,2,3c1.29,2,2.5,4.12,3.66,6.25.15.27.3.53.43.79s.29.53.43.81c.56,1.06,1.11,2.16,1.65,3.25.23.46.46.93.68,1.4a1.62,1.62,0,0,0,.17.32c.24.53.48,1,.7,1.56s.53,1.17.79,1.76l.53,1.23c.29.69.57,1.37.84,2,.15.37.3.75.44,1.12l.05.09a2,2,0,0,0,.07.19.11.11,0,0,0,0,.06c.28.73.55,1.47.82,2.21.19.5.36,1,.53,1.5.13.33.25.68.36,1s.25.73.37,1.1l.44,1.35c.11.34.21.71.33,1,.18.57.34,1.15.51,1.73s.4,1.41.59,2.12c.15.51.28,1,.41,1.55.08.28.15.58.22.87l.08.29c0,.07,0,.12,0,.18l.27,1.14c.29,1.24.56,2.49.82,3.75.06.28.12.57.17.86s.11.57.16.88c.14.67.25,1.36.37,2s.19,1.1.27,1.66.15,1,.22,1.46.17,1.28.26,1.92.15,1.28.23,1.93.14,1.28.19,1.92c0,.36.07.68.1,1s0,.43,0,.64,0,.35,0,.53,0,.38,0,.56l.09,1.16c0,.3,0,.62.05.93,0,.11,0,.25,0,.37,0,.6,0,1.17.07,1.76,0,.41,0,.82.05,1.23v.08l0,1.55c0,.66,0,1.31,0,2A123.12,123.12,0,0,1,517,1040.87h-1.1l-2.32,0c-.66,0-1.32,0-2-.06h-.17c-.53,0-1.07,0-1.59-.08l-.38,0-1.36-.1c-.7,0-1.4-.1-2.1-.16-.41,0-.81-.08-1.22-.11h0l-2-.22-1.45-.17-1.29-.17-1.4-.2-1.39-.22-.9-.15c-.29,0-.58-.1-.88-.15-.72-.13-1.44-.25-2.15-.39l-.12,0-1.06-.21h-.06l-.2,0-1.27-.26a3.2,3.2,0,0,1-.42-.1h-.08c-.42-.09-.84-.17-1.25-.28l-1.38-.33c-.25,0-.49-.13-.74-.19l-.46-.1c-.54-.15-1.09-.28-1.62-.44-1.47-.39-2.93-.82-4.38-1.28q-13-5.25-25.61-11.35c-1.69-.83-3.39-1.66-5.07-2.5-.13-.06-.24-.13-.37-.18l-.19-.11c-.59-.28-1.15-.56-1.73-.87-.86-.43-1.73-.88-2.58-1.33-.46-.21-.91-.45-1.36-.69-.88-.46-1.74-.91-2.6-1.38-4-2.1-7.94-4.28-11.84-6.52l-2.85-1.63-2.84-1.68L419,1004.5c-1-.64-2.05-1.25-3.07-1.89-1.22-.75-2.44-1.53-3.66-2.3-.88-.55-1.77-1.13-2.65-1.7-1-.66-2.06-1.32-3.09-2s-2.05-1.35-3.07-2q-6.12-4.08-12.09-8.39c-1-.72-2-1.43-3-2.16-2-1.45-3.95-2.91-5.9-4.41-1-.74-2-1.47-2.91-2.23q-5.82-4.5-11.47-9.2c-.85-.67-1.69-1.39-2.52-2.1-1.16-1-2.33-2-3.48-3-1.73-1.49-3.44-3-5.14-4.5-1-.85-1.93-1.72-2.89-2.58q-2.64-2.41-5.24-4.85c-1.74-1.62-3.47-3.26-5.17-4.91l-2.77-2.71-2.6-2.58q-5.31-5.34-10.43-10.85c-.76-.81-1.51-1.61-2.24-2.43s-1.66-1.81-2.47-2.7l-2.44-2.75-2.26-2.58c-.92-1-1.82-2.1-2.71-3.15-.71-.82-1.4-1.64-2.08-2.46-.85-1-1.67-2-2.49-3L309.46,909c-.13-.18-.26-.33-.39-.49-.6-.74-1.2-1.47-1.79-2.22l-1.77-2.23c-1.17-1.49-2.34-3-3.49-4.47l-1.45-1.9-.26-.34c-.49-.63-1-1.26-1.44-1.92-.72-.94-1.43-1.9-2.13-2.87-1.42-1.91-2.81-3.84-4.19-5.78-.7-1-1.39-2-2.06-2.93s-1.37-2-2-3c-.35-.49-.68-1-1-1.47s-.68-1-1-1.49c-.67-1-1.33-2-2-3l-2.08-3.18c-.78-1.19-1.55-2.4-2.31-3.62l0,0,0,0c-.13-.22-.26-.44-.39-.63-.43-.69-.86-1.36-1.27-2l-.06-.1c-.66-1.06-1.3-2.1-1.95-3.17s-1.23-2-1.83-3-1.2-2-1.81-3c-.47-.8-.94-1.59-1.4-2.39-.56-1-1.11-1.94-1.67-2.89-.42-.75-.85-1.5-1.26-2.25l-1.57-2.81c-.62-1.12-1.22-2.23-1.82-3.34s-1.08-2-1.61-3c-.12-.24-.26-.47-.38-.71-.53-1-1-2-1.57-3s-1.13-2.2-1.69-3.31l-.08-.14c-.56-1.12-1.12-2.24-1.67-3.36s-1.13-2.28-1.68-3.42l-.83-1.71-.82-1.74c-.54-1.14-1.08-2.29-1.61-3.44s-1.06-2.32-1.59-3.49-1-2.32-1.55-3.49l-.77-1.76c-.25-.58-.51-1.16-.76-1.75-.5-1.17-1-2.33-1.5-3.52s-1-2.35-1.46-3.54L244,797.51c-.48-1.2-.95-2.39-1.4-3.59s-.92-2.38-1.38-3.59c-.32-.85-.64-1.72-1-2.59-.12-.31-.23-.61-.35-.91,0-.08-.06-.2-.1-.29-.85-2.34-1.7-4.68-2.51-7q-.78-2.28-1.55-4.58t-1.5-4.57L233.13,767a.43.43,0,0,1,0-.05c-.17-.56-.35-1.13-.53-1.71-.41-1.35-.83-2.74-1.23-4.09s-.73-2.49-1.09-3.73c-.31-1.06-.6-2.12-.9-3.2-.19-.68-.38-1.38-.56-2.06l-.09-.33c-.23-.85-.46-1.68-.68-2.54q-.42-1.56-.81-3.12c-.33-1.25-.65-2.51-.95-3.77-.16-.63-.31-1.26-.47-1.9s-.3-1.26-.44-1.89c-.27-1.15-.55-2.29-.81-3.46-.21-.93-.42-1.86-.63-2.81s-.43-1.94-.63-2.92l-.63-3c-.19-.9-.36-1.82-.55-2.73-.05-.29-.11-.57-.17-.84-.21-1.13-.44-2.28-.65-3.43s-.48-2.57-.71-3.87-.43-2.42-.63-3.64c0-.13-.05-.27-.08-.39-.17-1-.34-2-.5-3.07s-.37-2.28-.54-3.42-.35-2.28-.5-3.43c-.13-.84-.25-1.7-.37-2.54-.13-1-.27-2-.4-3s-.31-2.29-.44-3.46c0-.29-.07-.56-.1-.84-.15-1.2-.3-2.38-.42-3.57s-.29-2.64-.43-4c-.08-.72-.14-1.45-.22-2.16,0-.15,0-.28,0-.43-.08-.82-.15-1.62-.23-2.45-.1-1.05-.18-2.09-.28-3.14l-.3-3.87c-.09-1.29-.19-2.58-.27-3.89-.05-.7-.09-1.43-.13-2.14s-.11-1.67-.15-2.52c-.07-1.29-.13-2.6-.2-3.9s-.11-2.62-.15-3.93q-.15-3.79-.22-7.65c-.05-2.7-.07-5.39-.07-8.12,0-1.38,0-2.75,0-4.14v-.35l0-2.32c0-.18,0-.33,0-.49,0-1.35.05-2.68.08-4,0-1.67.09-3.33.16-5a1.09,1.09,0,0,0,0-.17c.05-1.36.11-2.73.17-4.09,0-.68.07-1.35.1-2,.06-1.08.12-2.17.19-3.23s.12-2.1.2-3.14c.08-1.26.17-2.52.26-3.77l0-.36a.25.25,0,0,1,0-.09,2.19,2.19,0,0,0,0-.36c.07-1,.15-2,.23-2.94,0-.17,0-.33.05-.5a2.64,2.64,0,0,0,0-.29c0-.13,0-.27,0-.4l.12-1.42h0c.14-1.51.28-3,.44-4.53.11-1.14.24-2.3.36-3.43,0-.16,0-.29.06-.45.1-1,.23-2.07.35-3.12.15-1.28.3-2.56.47-3.83,0-.4.1-.84.16-1.26.17-1.31.35-2.62.53-3.94s.35-2.42.54-3.64c.11-.86.24-1.71.38-2.55a1.33,1.33,0,0,1,0-.24c.16-1,.32-2.1.49-3.14,0-.13.05-.26.07-.41.16-1,.33-2,.5-2.94.07-.47.16-.94.24-1.4.13-.72.25-1.45.38-2.17,0-.08,0-.17.05-.27.13-.76.28-1.51.42-2.27.22-1.25.46-2.49.71-3.73s.46-2.31.7-3.47a.8.8,0,0,1,0-.18c.26-1.31.53-2.6.81-3.91q.69-3.17,1.42-6.32c.27-1.18.54-2.36.83-3.54l.12-.51c.15-.62.29-1.24.45-1.85l.12-.53.27-1.06c.16-.61.31-1.24.47-1.86s.31-1.23.48-1.84c.35-1.39.72-2.75,1.09-4.12,0-.05,0-.08,0-.12.39-1.41.78-2.82,1.18-4.23q2-7.12,4.25-14.13c.21-.67.42-1.32.64-2,.12-.39.26-.79.39-1.17.37-1.15.74-2.27,1.12-3.39,0-.1.07-.2.1-.29.48-1.42,1-2.82,1.46-4.24s1.08-3,1.63-4.54c.32-.88.64-1.78,1-2.65.07-.19.13-.37.2-.55.17-.45.32-.89.49-1.32l.87-2.29c1-2.54,2-5.09,3-7.6.33-.85.66-1.67,1-2.5s.63-1.55,1-2.33c.6-1.42,1.2-2.86,1.83-4.29.05-.13.1-.25.16-.38.57-1.33,1.16-2.63,1.75-4,.07-.16.15-.33.22-.5.39-.88.79-1.77,1.19-2.64q2.48-5.43,5.1-10.77c.5-1,1-2,1.51-3.05,1.2-2.43,2.44-4.83,3.7-7.24l1.15-2.18c.16-.31.33-.6.49-.9.64-1.18,1.27-2.37,1.92-3.54.34-.65.69-1.28,1.05-1.93l.28-.5c.35-.64.71-1.28,1.08-1.91.12-.24.25-.46.37-.69.53-.93,1.06-1.87,1.6-2.8.82-1.42,1.64-2.82,2.47-4.24.65-1.09,1.31-2.19,2-3.28s1.21-2,1.83-3,1.27-2.09,1.93-3.13,1.31-2.08,2-3.1c.42-.68.85-1.33,1.27-2l.11-.17q1.69-2.64,3.44-5.23t3.3-4.86q1-1.47,2-2.91l.15-.21c1.38-2,2.78-3.94,4.19-5.88.3-.43.61-.86.92-1.27l.06-.09a1.71,1.71,0,0,1,.11-.14l.23-.33a3.81,3.81,0,0,0,.24-.32c.18-.24.34-.47.52-.7a1.81,1.81,0,0,1,.19-.25c.67-.92,1.35-1.82,2-2.71,1.48-2,3-4,4.52-5.92l1.61-2c.16-.22.33-.43.5-.65.78-1,1.57-1.95,2.36-2.94l2.37-2.91,2.37-2.85c.78-.94,1.57-1.87,2.36-2.8,1.58-1.86,3.18-3.7,4.8-5.54.8-.91,1.61-1.83,2.43-2.74s1.63-1.82,2.46-2.71l2.47-2.7c.31-.32.63-.67.94-1l1-1c.73-.79,1.48-1.58,2.24-2.37s1.56-1.63,2.35-2.44c.6-.63,1.21-1.25,1.82-1.88s1.31-1.33,2-2l1.81-1.81,2.21-2.19,1.29-1.26.11-.11c.93-.91,1.87-1.8,2.79-2.69l2.55-2.41c.14-.13.3-.28.45-.4.61-.58,1.21-1.14,1.83-1.7,1.8-1.67,3.61-3.33,5.44-5l.07-.06,2.34-2.07,0,0s0,0,0,0c.59-.52,1.19-1,1.78-1.56s1.2-1,1.79-1.53,1.15-1,1.75-1.5q1.72-1.5,3.5-3l.24-.2c.67-.56,1.35-1.13,2-1.69l2.24-1.83,2.26-1.81.34-.28.3-.23q2.09-1.67,4.2-3.29l2.46-1.9,2.92-2.21,2-1.53.25-.19q2.3-1.69,4.63-3.37l2-1.39c1-.72,2-1.42,3-2.12s2-1.4,3-2.09q5.58-3.84,11.32-7.5l2.39-1.52.35-.22.35-.21,1-.61,3.13-1.93c.73-.46,1.48-.91,2.23-1.36l.3-.18c.43-.26.87-.51,1.29-.78l1.24-.73,1.25-.74,2.21-1.3.45-.25,1.48-.85c.23-.11.44-.26.67-.38,1.09-.63,2.18-1.23,3.27-1.85a.94.94,0,0,1,.22-.12q1.67-.94,3.36-1.86c1.49-.82,3-1.63,4.51-2.43.83-.45,1.67-.89,2.51-1.33l.37-.19.62-.32,2.8-1.44q3.39-1.73,6.79-3.39a1.82,1.82,0,0,0,.31-.16c1.66-.8,3.32-1.6,5-2.38.68-.32,1.38-.63,2.07-1,1-.47,2.07-.95,3.11-1.41a.55.55,0,0,1,.15-.08c1.79-.8,3.59-1.61,5.39-2.4s3.59-1.55,5.4-2.31a2.56,2.56,0,0,0,.24-.11.43.43,0,0,1,.14,0,5.27,5.27,0,0,1,.49-.22l3.09-1.28.35-.14,2.84-1.15.4-.14c.75-.31,1.51-.63,2.28-.92.13-.05.24-.08.37-.14l1.57-.61,3.61-1.37.51-.2,1-.38,4.15-1.51c1.42-.52,2.84-1,4.27-1.5l.24-.09c.89-.32,1.8-.63,2.7-.94l.06,0,2.78-.92c.3-.11.61-.2.93-.3s.83-.28,1.24-.42c1.67-.54,3.34-1.06,5-1.59l2.91-.88.3-.09c.32-.11.65-.21,1-.3.13-.05.26-.07.39-.12l1-.3.17,0c.77-.23,1.55-.46,2.33-.67l.44-.12c.76-.24,1.53-.46,2.29-.66,1.06-.3,2.13-.61,3.19-.89s2-.54,2.93-.79l.06,0c.46-.13.92-.25,1.39-.36h0c1.26-.33,2.53-.67,3.8-1,.23-.06.46-.1.69-.17.45-.12.9-.24,1.36-.34l1.44-.35c.63-.16,1.24-.31,1.86-.45.21,0,.43-.09.64-.15l2.37-.56c1.62-.37,3.24-.74,4.87-1.09.29-.06.57-.12.86-.2l4.58-1c1.29-.27,2.59-.53,3.89-.78.13,0,.28-.06.41-.09l2.09-.39,2.94-.54,2.11-.38c.84-.14,1.68-.29,2.52-.42s1.7-.31,2.54-.43l.54-.1,2.42-.39.7-.1,1.18-.19q2.46-.37,4.95-.72c1.71-.24,3.43-.48,5.15-.69.13,0,.24,0,.37,0l4.13-.5c.17,0,.35,0,.52-.06.46-.05.92-.11,1.39-.14a.86.86,0,0,1,.17,0c2.51-.28,5.05-.55,7.59-.78a7.74,7.74,0,0,1,.83-.07l1.85-.18c1.6-.13,3.2-.27,4.81-.38s3.2-.25,4.8-.35c1.43-.09,2.86-.18,4.29-.25l1.89-.11q3.1-.15,6.21-.27c1.28-.05,2.57-.08,3.86-.12.75,0,1.51,0,2.26-.05s1.55,0,2.33,0c.38,0,.77,0,1.16,0h1.17c1.6,0,3.21,0,4.82,0a427.32,427.32,0,0,1,92.66,10.09l.42.1A6.32,6.32,0,0,1,738,230.12Z" transform="translate(-213.92 -213.79)"/><path class="cls-1" d="M664.18,828.9l-.58,0h.16Z" transform="translate(-213.92 -213.79)"/><path class="cls-3" d="M1066.08,640c0,235.41-190.84,426.26-426.26,426.26q-12.55,0-24.91-.71h0l-.36,0a3.39,3.39,0,0,1-.68-6.6h0l.48-.09a126.34,126.34,0,0,0,97.61-123c0-.78,0-1.57,0-2.35,0-1.06,0-2.11-.1-3.14,0-.31,0-.65,0-1,0-.84-.09-1.7-.15-2.55s-.13-1.73-.21-2.59c0-.46-.08-.93-.14-1.41-.07-.75-.15-1.5-.25-2.25-.06-.52-.12-1-.18-1.52s-.16-1.13-.24-1.69c-.22-1.49-.46-3-.73-4.43-.15-.78-.29-1.57-.46-2.35-.08-.4-.16-.8-.25-1.22s-.17-.79-.27-1.2q-.36-1.67-.78-3.3c-.19-.76-.38-1.52-.59-2.27-.15-.52-.29-1-.45-1.59s-.37-1.3-.57-1.93a1.94,1.94,0,0,1,0-.2c-.38-1.22-.77-2.45-1.19-3.66s-.88-2.55-1.35-3.8-1-2.5-1.48-3.74c-1-2.38-2-4.75-3.18-7.07-.19-.4-.38-.78-.58-1.18-.6-1.2-1.22-2.39-1.87-3.58-.26-.51-.54-1-.82-1.51l-.57-1q-.3-.54-.63-1.08a.39.39,0,0,0-.06-.11c-.41-.7-.81-1.39-1.24-2.07-.31-.52-.63-1-1-1.54s-.64-1-1-1.55c-.15-.26-.32-.51-.49-.77-.93-1.39-1.88-2.78-2.86-4.13-.31-.43-.61-.85-.93-1.26s-.61-.84-.94-1.25c-.94-1.27-1.93-2.52-3-3.74-.3-.39-.61-.76-.93-1.15s-.67-.78-1-1.18q-3-3.5-6.25-6.75l-.78-.78c-.71-.69-1.42-1.38-2.15-2.06s-1.26-1.19-1.91-1.76-1.42-1.29-2.14-1.9-1.24-1.06-1.86-1.58c-1.46-1.22-3-2.39-4.46-3.55l0,0-.34-.26a3.38,3.38,0,0,1,2.08-5.92l.58,0,2.67.09c1.87,0,3.74.07,5.62.09l3.42,0c2.71,0,5.4,0,8.09-.09,1.29,0,2.58-.08,3.87-.14.48,0,.95,0,1.43,0,1.15,0,2.32-.08,3.47-.15,2.43-.13,4.86-.27,7.27-.44l1.71-.13c2.39-.19,4.77-.4,7.15-.65.62-.05,1.25-.1,1.86-.18h0c.65-.07,1.28-.13,1.92-.22,1.09-.11,2.17-.23,3.26-.38.82-.07,1.63-.18,2.45-.3s1.63-.21,2.44-.32,1.89-.25,2.83-.4c.56-.06,1.12-.14,1.68-.25s1.13-.15,1.69-.26q3.53-.54,7-1.16c1.14-.2,2.3-.42,3.44-.64l1.74-.33,2.67-.53c.88-.19,1.78-.36,2.66-.56s1.77-.38,2.65-.57l2.65-.59c1.15-.26,2.29-.53,3.44-.82l1.87-.45c2.21-.55,4.42-1.12,6.61-1.71.55-.15,1.1-.29,1.66-.46.83-.22,1.67-.46,2.5-.7,1-.27,2-.56,3-.85l1.89-.57c1-.3,2-.6,3-.92,1.3-.4,2.58-.81,3.86-1.23,2.2-.7,4.38-1.45,6.57-2.21.86-.3,1.71-.59,2.57-.91,1.57-.55,3.14-1.14,4.71-1.73.88-.32,1.76-.65,2.64-1,1.87-.7,3.73-1.44,5.58-2.2l1.39-.57c2.23-.91,4.44-1.86,6.64-2.82l3-1.33c1.41-.64,2.81-1.27,4.21-1.93,3-1.4,6-2.83,8.9-4.32.81-.41,1.62-.81,2.42-1.25,2.05-1,4.09-2.11,6.11-3.21,2.25-1.22,4.5-2.47,6.73-3.75.64-.35,1.29-.73,1.93-1.1l2.19-1.29c1.2-.7,2.39-1.4,3.57-2.15,2-1.18,3.91-2.41,5.86-3.64,1.13-.72,2.25-1.45,3.38-2.19q3.26-2.12,6.46-4.34c.72-.49,1.44-1,2.15-1.49.86-.59,1.71-1.21,2.57-1.82,1.32-.94,2.62-1.88,3.92-2.85s2.86-2.1,4.27-3.19c.66-.49,1.3-1,1.94-1.5,1.18-.91,2.36-1.83,3.52-2.76.68-.53,1.35-1.08,2-1.62s1.34-1.09,2-1.63l1.6-1.33c1-.85,2.06-1.73,3.09-2.61.55-.45,1.08-.91,1.61-1.38s1-.84,1.47-1.28c2-1.73,4-3.5,5.9-5.29.72-.63,1.42-1.3,2.13-2s1.71-1.6,2.56-2.41c1.09-1,2.17-2.09,3.25-3.16a4.79,4.79,0,0,0,.51-.5c.93-.9,1.84-1.81,2.75-2.73,1.09-1.08,2.16-2.2,3.21-3.3.78-.79,1.55-1.6,2.31-2.41q3.58-3.79,7.05-7.7c.88-1,1.75-2,2.61-3,1.5-1.73,3-3.48,4.45-5.25.35-.42.68-.81,1-1.21l1-1.21,1.79-2.21c.8-1,1.6-2,2.38-3,1.31-1.66,2.59-3.32,3.86-5,.69-.91,1.38-1.84,2.06-2.77l1.28-1.74,1.26-1.76q.83-1.14,1.62-2.28c.54-.76,1.07-1.54,1.6-2.31q7.23-10.48,13.66-21.56.74-1.25,1.44-2.49c1.75-3,3.43-6.12,5.07-9.25.61-1.12,1.19-2.26,1.77-3.38q3.5-6.81,6.66-13.77c.35-.77.69-1.53,1-2.3,1.32-2.93,2.6-5.91,3.81-8.9.11-.25.21-.49.3-.74q1.33-3.21,2.56-6.46c.21-.54.42-1.08.63-1.64s.45-1.2.67-1.81.46-1.21.67-1.82c.51-1.36,1-2.74,1.46-4.11a.18.18,0,0,0,0-.09c.22-.65.45-1.29.66-1.94a3.29,3.29,0,0,0,.16-.44c.19-.57.39-1.13.57-1.7.6-1.77,1.17-3.55,1.73-5.35.43-1.33.85-2.67,1.24-4,.28-.89.55-1.8.8-2.71s.6-2,.88-3,.57-2,.84-3c.35-1.31.71-2.61,1-3.94a.93.93,0,0,0,0-.13c.16-.64.32-1.25.47-1.89a.91.91,0,0,0,.06-.26c.27-1,.52-2.06.76-3.09.3-1.25.6-2.51.88-3.77.48-2.09.93-4.17,1.36-6.27.12-.58.25-1.16.35-1.74s.24-1.15.34-1.73.23-1.15.34-1.73c.41-2.18.81-4.38,1.17-6.57.14-.72.25-1.45.37-2.19,0,0,0,0,0,0,.28-1.66.53-3.33.76-5a4.33,4.33,0,0,0,.08-.5c.13-.86.25-1.71.36-2.58s.23-1.7.33-2.57.22-1.63.31-2.45c.22-1.79.43-3.58.61-5.38,0,0,0,0,0,0,.07-.66.15-1.33.2-2s.13-1.32.18-2c.14-1.32.25-2.65.35-4,.09-1.09.17-2.19.25-3.29s.13-1.9.18-2.84c0-.55.08-1.1.1-1.63,0-.72.08-1.43.11-2.12.14-2.66.24-5.31.3-8,0-.74.05-1.46.05-2.2,0-1,0-1.94,0-2.9,0-1.2,0-2.39,0-3.58a330.71,330.71,0,0,0-6.49-65.39,5.91,5.91,0,0,1-.13-1.28,6.37,6.37,0,0,1,12-3c.12.19.22.38.33.57l1.84,3.29,1.22,2.23c.42.73.83,1.48,1.22,2.23.7,1.29,1.38,2.6,2.07,3.89.46.86.9,1.73,1.35,2.6.54,1,1.07,2.07,1.58,3.11.68,1.32,1.34,2.65,2,4,.21.43.43.86.63,1.29s.43.87.63,1.3c.66,1.37,1.33,2.75,2,4.14s1.3,2.79,1.94,4.17l.84,1.84c.48,1.06,1,2.13,1.44,3.22s1,2.22,1.46,3.35,1.06,2.47,1.58,3.71,1.13,2.69,1.68,4,1.09,2.71,1.63,4.07c.43,1,.83,2.08,1.23,3.12.49,1.27,1,2.52,1.44,3.77l1.16,3.09c.39,1.08.79,2.17,1.17,3.27.27.77.54,1.52.81,2.27.34.94.66,1.88,1,2.81.44,1.28.87,2.56,1.3,3.85s.85,2.57,1.27,3.86.82,2.58,1.23,3.88c.33,1,.64,2.08,1,3.12s.65,2.08.94,3.12c.2.63.38,1.27.56,1.9q2.28,7.81,4.24,15.75c.34,1.33.66,2.65,1,4s.64,2.67.94,4q1.68,7.37,3.1,14.79c.13.65.26,1.32.37,2l.15.79c.29,1.52.56,3,.82,4.59.06.34.12.68.17,1,.14.77.26,1.53.39,2.3.18,1,.34,2.07.5,3.1.2,1.2.37,2.4.55,3.61s.34,2.31.5,3.47c0,.27.08.55.11.83.19,1.32.37,2.63.53,3.95q.54,4.15,1,8.31c.15,1.4.29,2.79.43,4.17s.27,2.79.39,4.18c.1,1,.18,2.06.26,3.1s.15,1.79.21,2.71.14,1.78.2,2.68Q1066.07,625,1066.08,640Z" transform="translate(-213.92 -213.79)"/><path class="cls-4" d="M973.61,467.06q0,8.91-.48,17.7c-9,168.14-145.45,302.41-314.5,307.94h-.28a6.36,6.36,0,0,1-5.13-10.07l0,0,.62-.75,0,0a324.72,324.72,0,0,0,62.54-115.1,77.93,77.93,0,0,0,2.44-8.45s0,0,0-.09a81.73,81.73,0,0,0-1.61-42.45c-4.06-13-12-27-32.11-43.07l0,0A172.89,172.89,0,0,1,799.79,270.3c4.48,0,8.93.18,13.33.51a172,172,0,0,1,86.75,31.4.28.28,0,0,1,.11.08q8.81,6.76,17.25,14a172.89,172.89,0,0,1,47.5,74.88,325.55,325.55,0,0,1,8,51.19Q973.59,454.62,973.61,467.06Z" transform="translate(-213.92 -213.79)"/></svg>