<svg xmlns="http://www.w3.org/2000/svg" viewBox="0 0 1498.7 315.75" xmlns:v="https://vecta.io/nano"><style><![CDATA[.A{letter-spacing:-0.07em}]]></style><text class="A" transform="translate(273.81 244.35)" font-size="240.41" font-family="HiraMinProN-W3-83pv-RKSJ-H,Hiragino Mincho ProN">FibonacciKu</text><path d="M168 5.24a2 2 0 0 1-2 2h-.3l-4.33-.1h-1.61-1.52-.5-.56-.77-.69-.21-.16l-1.09.07-.88.07-1.22.1h-.4-.06l-.8.09h-.21-.12l-.61.07-1.9.24-.69.1-1.73.27-.76.13-1 .17-.67.12-.43.08-.43.09h-.16l-.81.17h0l-1.68.36h0l-.66.16-1.1.26-1.08.28h0l-.94.25-1.15.31h0l-1.15.34-.9.27-.6.18-.9.29-.76.26-.68.22-.67.24-.68.24h0l-.52.19-.74.28-.41.16-1.57.61-.79.32-1.55.66-.77.33-.58.26-.58.26-1.15.54-.75.36-.75.37-.56.28-.83.42-1.62.86-.82.44-.62.34-.67.39-.67.38-1.5.89h-.07l-1.4.87-1.27.82-.57.37-.57.38-.42.29-.7.48-.57.4-.65.45-.53.39-2.05 1.52-.83.65-.14.11-.64.51-.59.48-.08.06h0l-.52.42-.56.47-.46.39-.9.77-.86.76-.67.6-.87.8-1.06 1-.11.1-.19.18-.58.57h0l-.25.26q-.43.42-.84.84l-.56.57-.55.58-.19.19-.89 1-.15.16-.86.95-1 1.13-.83 1-.25.31-.77.92-.09.11-.75.93-.05.07-.15.19-.88 1.13-.06.08-.91 1.2-.86 1.18-.05.08-.41.57-.41.58-.07.1-.81 1.2-.05.07-.72 1.08-.13.21-.71 1.12a2.13 2.13 0 0 0-.16.25l-.69 1.12-.64 1.07-.29.49h0l-.43.76-.06.09-.3.54-.45.82-.19.34-.48.91-.51 1-1.09 2.19-.51 1.08-.52 1.13-.4.89-.4.94-.28.67-.52 1.25-.48 1.24h0l-.37 1a.14.14 0 0 1 0 .06l-.55 1.5-.12.36-.13.37-.25.73-.39 1.17-.21.67-.28.92c0 .09-.05.18-.08.26l-.27.92-.14.51-.47 1.7-.33 1.31-.19.74-.2.86-.26 1.18-.21 1c0 .13-.05.26-.08.38l-.15.76-.09.47v.16l-.15.86-.16.88c0 .14-.05.29-.07.43v.21l-.14.89q-.17 1-.3 2.07l-.09.76h0l-.09.76v.4c0 .14-.05.44-.07.67l-.07.68-.06.63c0 .3-.05.6-.08.9s0 .46-.05.69v.34.46c0 .39-.06.78-.08 1.17s0 .54 0 .81v.8.64.9.62.4.55.95 1.3.72.14.15.23.45.92l.05 1.14h0v.63c0 .26 0 .53.05.79s.05.71.07 1.06v.45h0l.09 1v.15l.09.88.09.87c0 .29.07.57.1.86l.11.87v.34l.15 1.07h0l.18 1.21.2 1.21.06.33c0 .32.11.65.17 1l.21 1.09a2.93 2.93 0 0 0 .05.29l.22 1 .29 1.34.17.75v.05a.44.44 0 0 1 0 .1l.09.38.26 1.06.31 1.2a.24.24 0 0 1 0 .08l.14.49.13.49h0a.19.19 0 0 1 0 .07l.36 1.24.32 1.09.14.44.32 1 .32 1 .4 1.16.38 1.07c0 .1.07.2.11.3l.35.94.44 1.14.19.49.26.65.47 1.13v.07l.44 1c.15.3.34.76.5 1.14h0l.49 1.07.49 1 .7 1.42.41.82.56 1.07.58 1.07.41.76.43.75.43.75.43.75.24.39.39.66v.07l.17.26a.41.41 0 0 0 0 .09l.32.52h0l.21.33.56.88.32.48.32.49a.56.56 0 0 1 .05.08h0l.3.45.3.45 1.41 2 .71 1 .71.95h0l.36.47a5.32 5.32 0 0 0 .36.47l.74.95.76.94.37.45.38.45v.06l.16.18a.18.18 0 0 0 0 .07l.5.59h0l.06.07.14.16.31.36.32.37.78.87.81.89.79.85h0 0l.82.85 1.7 1.71.82.8h.05 0l1 .93 1 .94.76.68.57.5.18.16.22.19.43.37.81.68.82.68.83.67.83.66 1 .74.25.19.66.49.72.53.37.27.71.51.11.08.59.41.09.06.76.53.21.14.8.54.57.37.52.34.77.49 2.48 1.51 1.42.82.47.27 1.12.61h.07l.29.16 1.22.64h0l1.14.59.6.29.17.08 1.36.76.23.17.47.34.46.34 1.8 1.45 1.3 1.15.42.4.49.48.73.74.39.42.4.43.75.86.74.89.67.86.33.44.32.44.07.1h0l.64.93.63 1q.62 1 1.17 2l.14.25.14.26.53 1 .21.45.06.11.22.5.26.56.17.39.27.66c0 .12.09.24.14.36h0a.14.14 0 0 1 0 .06h0l.26.7.17.49a2.53 2.53 0 0 1 .12.33l.12.35c0 .14.09.29.14.43l.1.34.17.55.19.68.13.5.07.28a.29.29 0 0 1 0 .09v.06c0 .12.06.24.08.36l.27 1.2c0 .1 0 .19.05.28a2.74 2.74 0 0 1 .05.28l.12.66.09.53c0 .16.05.31.07.47l.08.62.08.61.06.62v.32.21.17.18.37.29.13.56.39h0v.49.64c0 21.799-17.671 39.47-39.47 39.47h-.35-.75-.63-.05-.51.23-.43-.67-.4 0l-.63-.07-.46-.05-.42-.06-.45-.07-.44-.07h-.29-.28l-.69-.13h0l-.34-.08h-.08l-.41-.08h-.14 0l-.4-.09-.47.15-.24-.06h-.15l-.52-.14-1.4-.41a131.13 131.13 0 0 1-8.21-3.64l-1.63-.8-.11-.06h-.07c-.18-.08-.36-.18-.55-.28s-.55-.28-.83-.42l-.43-.22-.84-.44-3.79-2.09-.91-.53-.92-.53-1.37-.83-1-.6c-.4-.24-.79-.49-1.18-.74l-.85-.54-1-.64-1-.66q-2-1.31-3.88-2.69l-.95-.69c-.64-.46-1.26-.94-1.89-1.41l-.93-.72c-1.25-1-2.47-1.94-3.68-3l-.81-.67-1.11-.95c-.56-.48-1.11-1-1.65-1.44l-.93-.83-1.68-1.55c-.55-.52-1.11-1-1.65-1.58l-.89-.87-.83-.83a122.12 122.12 0 0 1-3.35-3.47l-.72-.78-.79-.87-.78-.88-.72-.82q-.45-.51-.87-1l-.67-.78-.8-1-.55-.67-.12-.15c-.19-.24-.39-.47-.57-.71l-.57-.72c-.38-.47-.75-1-1.12-1.43-.16-.2-.31-.41-.46-.61l-.09-.11c-.16-.2-.31-.4-.46-.61s-.46-.61-.68-.92l-1.35-1.86-.66-.93-.65-.95-.32-.47-.33-.48-.64-.95-.66-1-.74-1.16h0 0a1.37 1.37 0 0 1-.13-.2l-.41-.65h0l-.62-1-.59-1-.58-1-.45-.77-.53-.93-.41-.72-.5-.9-.58-1.07c-.18-.32-.35-.64-.52-1l-.12-.23c-.17-.32-.34-.64-.5-1s-.37-.7-.55-1.05l-.54-1.08-.53-1.09-.27-.55c-.09-.19-.18-.37-.26-.56-.18-.36-.35-.73-.52-1.1l-.51-1.12-.5-1.12-.24-.56c-.08-.19-.17-.37-.25-.56l-.48-1.13-.47-1.14-.45-1.14q-.24-.57-.45-1.14l-.44-1.15-.31-.84a2.49 2.49 0 0 1-.11-.29.36.36 0 0 0 0-.09l-.8-2.26-.5-1.46-.48-1.47-.34-1.09h0c0-.18-.11-.37-.17-.55l-.39-1.31-.35-1.2-.29-1-.18-.66v-.11l-.21-.82-.26-1c-.08-.34-.21-.81-.31-1.21l-.15-.61c0-.2-.09-.4-.14-.61l-.26-1.1-.2-.91-.2-.93c-.06-.31-.14-.63-.2-.95s-.12-.58-.18-.87l-.06-.27c-.06-.37-.14-.73-.2-1.1s-.16-.83-.23-1.24l-.2-1.17v-.13l-.16-1-.17-1.09-.16-1.1-.12-.82c0-.32-.09-.64-.13-1l-.14-1.11v-.27l-.14-1.14-.14-1.27c0-.23 0-.47-.07-.69v-.14c0-.26-.05-.52-.07-.79l-.09-1-.1-1.24c0-.42-.06-.83-.08-1.25V145v-.8c0-.27 0-.84-.07-1.26s0-.83-.05-1.25c0-.82 0-1.63-.07-2.46s0-1.73 0-2.6v-1.33-.11-.74-.16V133c0-.53 0-1.06.05-1.59v-.05-1.31-.65c0-.22 0-.69.06-1l.06-1c0-.41.06-.81.08-1.22a.37.37 0 0 0 0-.11h0v-.11c0-.32.05-.63.07-.95v-.16-.09-.13-.46h0c0-.48.09-1 .15-1.45s.07-.73.11-1.1v-.14c0-.33.07-.67.11-1l.15-1.23v-.4l.17-1.27.18-1.17q0-.41.12-.81v-.08c0-.33.1-.67.16-1a.69.69 0 0 0 0-.13c0-.32.11-.64.16-.95 0-.15 0-.3.08-.45l.12-.69v-.09c0-.24.09-.48.13-.73.07-.4.15-.79.23-1.19l.22-1.11v-.06c.08-.42.17-.84.26-1.25a49.51 49.51 0 0 1 .45-2l.27-1.13v-.17c0-.2.09-.4.14-.59s0-.11 0-.17.06-.23.08-.34.1-.4.16-.6.09-.39.15-.59l.35-1.32h0l.38-1.35c.43-1.52.88-3 1.37-4.53.06-.22.13-.42.2-.64a3.46 3.46 0 0 1 .13-.37c.11-.37.23-.73.35-1.09a.36.36 0 0 0 0-.09l.46-1.36a28.2 28.2 0 0 1 .53-1.45c.1-.29.2-.57.31-.85l.06-.18c.06-.14.1-.29.16-.42s.19-.49.28-.74c.31-.81.63-1.63 1-2.44.11-.27.21-.53.33-.79s.2-.5.31-.75l.59-1.38a.61.61 0 0 1 0-.12l.56-1.27c0-.05.05-.1.07-.16l.38-.84 1.64-3.46.48-1a63.27 63.27 0 0 1 1.19-2.32l.36-.7.16-.29.62-1.14.33-.62.09-.16.35-.61.12-.22.51-.9.79-1.36c.26-.46.42-.7.64-1.05l.58-1 .62-1 .63-1 .41-.64v-.05c.36-.57.73-1.13 1.1-1.68s.69-1.05 1.06-1.56l.64-.93.05-.07c.44-.64.89-1.26 1.34-1.89l.3-.4h0v-.05l.08-.1.07-.1.17-.23.06-.08.65-.87c.48-.64 1-1.26 1.45-1.89l.52-.66.16-.21.75-.94.76-.93.76-.91c.25-.31.5-.61.76-.9.5-.6 1-1.19 1.54-1.78l.78-.88.78-.86.8-.87.3-.32.3-.32.72-.76.75-.79.59-.6.63-.64.58-.58.71-.7.41-.4h0l.89-.86.82-.77.14-.13.59-.55 1.74-1.59h0l.75-.67h0l.57-.5.58-.49c.18-.17.37-.33.56-.48.37-.33.74-.64 1.12-.95 0 0 .05-.05.08-.06l.65-.55.72-.58.72-.58.11-.09.1-.08 1.34-1.05.79-.61.94-.71.66-.49.08-.06 1.48-1.08.63-.45 1-.67 1-.67c1.19-.83 2.41-1.63 3.63-2.41l.77-.49.11-.07.11-.06.31-.2 1-.62.72-.43a.21.21 0 0 1 .1-.06c.13-.09.27-.17.41-.25l.4-.24c.13-.08.26-.16.4-.23l.71-.42.14-.08.47-.27.22-.12 1.05-.6h.07l1.07-.59 1.45-.78.8-.43.12-.06.2-.1.9-.47 2.18-1.08.1-.05 1.6-.76.66-.31 1-.46h.05l1.72-.77 1.74-.74h.07.05l.15-.07 1-.41h.12l.91-.37.13-.05.73-.29.11-.05.51-.19 1.15-.44.17-.07.33-.12a35.87 35.87 0 0 1 1.34-.48l1.36-.49h.08l.87-.3h0l.89-.29.29-.1.4-.14 1.61-.51.93-.28h.1l.31-.09h.13l.31-.1h.05l.75-.22h.14l.74-.21 1-.28.94-.26h0l.44-.12h0l1.22-.32.22-.05.44-.11.46-.11.6-.15h.2l.76-.18 1.56-.36.28-.06 1.47-.3 1.24-.25h.13l.67-.12.95-.18.67-.12.81-.14.81-.14h.18l.77-.13h.23l.38-.06 1.58-.23 1.65-.22h.12l1.33-.16h.16l.45-.05h.05a66.66 66.66 0 0 1 2.43-.25 2.48 2.48 0 0 1 .27 0l.59-.05 1.55-.13 1.53-.11 1.38-.08h.61c.66 0 1.32-.06 2-.09h1.23.73.74 2.3a137.07 137.07 0 0 1 29.7 3.24h.13A2 2 0 0 1 168 5.24z" fill="#39c5f3"/><path d="M273.15 136.6c0 75.459-61.171 136.63-136.63 136.63-2.69 0-5.35-.07-8-.23h-.12a1.09 1.09 0 0 1-1-1.08 1.08 1.08 0 0 1 .76-1h0 .15c18.388-4.245 31.408-20.628 31.39-39.5v-.75-1-.3c0-.27 0-.55-.05-.82s0-.55-.06-.83 0-.3 0-.45-.05-.48-.08-.72l-.06-.49c0-.18 0-.36-.07-.54-.07-.48-.15-1-.24-1.42 0-.25-.09-.5-.14-.75s-.06-.26-.08-.39l-.09-.39-.25-1.06-.19-.72c-.07-.24-.09-.34-.14-.51s-.12-.42-.19-.63v-.06a53.04 53.04 0 0 0-.38-1.17c-.13-.39-.29-.82-.44-1.22l-.47-1.2c-.32-.76-.66-1.52-1-2.26-.06-.13-.12-.26-.19-.38a25.09 25.09 0 0 0-.6-1.15 11.3 11.3 0 0 0-.26-.48l-.18-.32-.2-.35h0l-.4-.66c-.14-.22-.2-.33-.31-.49s-.21-.33-.32-.5l-.16-.25a38.7 38.7 0 0 0-.91-1.32l-.3-.41-.3-.4c-.3-.4-.62-.8-1-1.2q-.13-.18-.3-.36c-.1-.13-.21-.25-.32-.38a37.31 37.31 0 0 0-2-2.16l-.25-.25-.69-.66c-.2-.2-.41-.38-.61-.57l-.69-.61-.6-.5a32.47 32.47 0 0 0-1.43-1.14h0l-.11-.08a1.1 1.1 0 0 1-.37-.81 1.09 1.09 0 0 1 1-1.09h.19.85 1.8 1.1 2.59 1.24.46 1.11c.78 0 1.56-.09 2.33-.15h.55l2.29-.2.6-.06h0l.61-.07 1.05-.12.78-.1.79-.1.9-.13.54-.08.54-.08 2.26-.38 1.1-.2.56-.11.86-.17c.28-.06.57-.11.85-.18l.85-.18.85-.19 1.1-.26.6-.15c.71-.17 1.42-.35 2.12-.55l.53-.14.8-.22 1-.28.61-.18 1-.3 1.24-.39 2.1-.71.83-.29 1.51-.55.84-.32 1.79-.71.45-.18 2.13-.91 1-.43 1.35-.61c1-.45 1.91-.91 2.86-1.39l.77-.4 2-1 2.16-1.2.62-.35.7-.41 1.14-.69 1.88-1.17 1.09-.7 2.07-1.39.68-.48.83-.58 1.26-.92 1.36-1 .63-.48 1.12-.89.65-.51.64-.53.52-.42 1-.84.51-.44.47-.41 1.89-1.7a13.53 13.53 0 0 0 .69-.63l.82-.77 1-1 .16-.16.88-.88c.35-.35.7-.7 1-1.06s.5-.51.74-.77c.77-.81 1.52-1.63 2.26-2.47.29-.31.56-.63.84-.95.48-.55 1-1.12 1.43-1.68l.32-.39.31-.39c.2-.23.39-.47.58-.71s.51-.64.76-1l1.24-1.61.66-.89c.14-.18.27-.37.41-.56l.4-.56c.18-.24.35-.49.52-.73l.51-.74q2.33-3.36 4.38-6.91l.46-.8c.57-1 1.1-2 1.63-3 .2-.36.38-.73.57-1.09a105.1 105.1 0 0 0 2.13-4.41l.33-.74c.43-.94.84-1.89 1.22-2.85a2.44 2.44 0 0 0 .1-.24c.29-.68.56-1.37.82-2.07.07-.17.13-.35.2-.52s.15-.39.22-.58l.21-.59c.17-.43.32-.87.47-1.31.07-.2.15-.41.21-.61l.06-.15.18-.54.55-1.72c.18-.58.28-.85.4-1.28s.18-.58.26-.87l.28-1 .27-1 .33-1.27h0a6 6 0 0 0 .15-.61.19.19 0 0 0 0-.08c.09-.33.17-.66.25-1l.28-1.21.44-2c0-.18.08-.37.11-.56s.07-.36.11-.55l.11-.55.37-2.11c.05-.23.08-.47.12-.7h0a44.12 44.12 0 0 0 .24-1.6.76.76 0 0 0 0-.16c0-.27.08-.55.11-.82s.08-.55.11-.83.07-.52.1-.78l.19-1.73h0c0-.21.05-.42.07-.63l.06-.63c0-.43.08-.85.11-1.28l.08-1.05.06-.91v-.53-.68c.05-.85.08-1.7.1-2.55v-.71-.93-1.14a106.35 106.35 0 0 0-2.08-21 1.9 1.9 0 0 1 0-.41 2 2 0 0 1 3.83-1l.11.19.59 1.05.39.72c.13.23.27.47.39.71l.66 1.25c.15.27.29.55.44.83s.34.67.5 1l.64 1.27.21.42c.07.14.13.28.2.41l.63 1.33.63 1.34.26.59.47 1c.16.32.31.71.46 1.07l.51 1.19.54 1.3c.18.43.35.87.52 1.3l.4 1 .46 1.21.37 1 .37 1.05a21.25 21.25 0 0 1 .26.73c.08.24.22.6.32.9l.41 1.23.41 1.24.4 1.24.3 1c.11.34.21.67.3 1s.12.41.18.61c.49 1.67.94 3.36 1.36 5.05l.31 1.28.3 1.28a147.46 147.46 0 0 1 1 4.74c0 .21.08.42.11.64a2.21 2.21 0 0 1 .05.25c.1.49.18 1 .27 1.47a.76.76 0 0 0 .05.33c.05.11.08.49.13.74s.1.66.16 1 .11.77.17 1.16l.16 1.11v.27l.17 1.26.31 2.67.14 1.33.13 1.34c.04.44 0 .66.08 1s.05.57.07.86l.06.87q.29 4.58.29 9.37z" fill="#16294f"/><path d="M243.51 81.19q0 2.85-.15 5.67c-2.95 54.054-46.706 96.899-100.81 98.71h-.09a2 2 0 0 1-1.62-3.19h0l.2-.24h0a104.05 104.05 0 0 0 20.05-36.9 24.59 24.59 0 0 0 .78-2.7h0a26.17 26.17 0 0 0-.52-13.61c-1.3-4.17-3.85-8.66-10.29-13.8h0A55.37 55.37 0 0 1 133.5 84.8a56.25 56.25 0 0 1-1.12-11.16 55.4 55.4 0 0 1 55.42-55.42c1.44 0 2.87.05 4.28.16a55.08 55.08 0 0 1 27.8 10.07h0c1.88 1.45 3.73 2.95 5.53 4.5a55.41 55.41 0 0 1 15.22 24 104.1 104.1 0 0 1 2.55 16.41q.33 3.84.33 7.83z" fill="#ee3854"/></svg>